<svg width="19" height="22" viewBox="0 0 19 22" fill="none" xmlns="http://www.w3.org/2000/svg">
<path d="M9.52 1.91C6.21 1.91 3.52 4.6 3.52 7.91V10.8C3.52 11.41 3.26 12.34 2.95 12.86L1.8 14.77C1.09 15.95 1.58 17.26 2.88 17.7C7.19 19.14 11.84 19.14 16.15 17.7C17.36 17.3 17.89 15.87 17.23 14.77L16.08 12.86C15.78 12.34 15.52 11.41 15.52 10.8V7.91C15.52 4.61 12.82 1.91 9.52 1.91Z" stroke="#292D32" stroke-width="1.5" stroke-miterlimit="10" stroke-linecap="round"/>
<path d="M11.37 2.2C11.06 2.11 10.74 2.04 10.41 2C9.45 1.88 8.53 1.95 7.67 2.2C7.96 1.46 8.68 0.940002 9.52 0.940002C10.36 0.940002 11.08 1.46 11.37 2.2Z" stroke="#292D32" stroke-width="1.5" stroke-miterlimit="10" stroke-linecap="round" stroke-linejoin="round"/>
<path d="M12.52 18.06C12.52 19.71 11.17 21.06 9.52 21.06C8.7 21.06 7.94 20.72 7.4 20.18C6.86 19.64 6.52 18.88 6.52 18.06" stroke="#292D32" stroke-width="1.5" stroke-miterlimit="10"/>
</svg>
